<svg width="61" height="24" viewBox="0 0 61 24" fill="none" xmlns="http://www.w3.org/2000/svg">
<g clip-path="url(#clip0)">
<path d="M3.64638 0H0V19.8116H4.2875C6.53142 19.8116 8.09415 19.087 8.98905 17.6522C9.88395 16.2174 10.3247 13.5942 10.3247 9.81159C10.3247 6.08696 9.88395 3.52174 8.98905 2.11594C8.09415 0.710145 6.31771 0 3.64638 0ZM6.05058 16.6667C5.73002 17.3333 5.15568 17.6522 4.32757 17.6522H3.67309V2.17391H4.32757C5.16904 2.17391 5.74338 2.73913 6.06394 3.85507C6.3845 4.97101 6.54478 7.02899 6.54478 10.0145C6.53142 13.7826 6.37114 16 6.05058 16.6667Z" fill="white"/>
<path d="M14.4787 0.0144043H11.0327V3.47817H14.4787V0.0144043Z" fill="white"/>
<path d="M14.4787 4.6377H11.0327V19.8116H14.4787V4.6377Z" fill="white"/>
<path d="M20.262 11.2464C19.1668 10.2029 18.5123 9.49279 18.2986 9.10148C18.0849 8.71018 17.978 8.31887 17.978 7.89858C17.978 7.55076 18.0715 7.28989 18.2585 7.10148C18.4455 6.91308 18.6726 6.82612 18.9531 6.82612C19.287 6.82612 19.5408 6.97105 19.7278 7.24641C19.9148 7.52177 20.0083 7.89858 20.0083 8.34786H22.7597C22.7597 7.10148 22.4258 6.13047 21.7713 5.44931C21.1169 4.76815 20.1685 4.43481 18.9264 4.43481C17.7643 4.43481 16.8294 4.76815 16.1215 5.42032C15.4136 6.08699 15.0529 6.97105 15.0529 8.08699C15.0529 9.15945 15.1999 10.058 15.4803 10.7826C15.7608 11.5073 16.4287 12.3624 17.4838 13.3624C18.312 14.1305 18.913 14.7392 19.2736 15.1595C19.6343 15.5797 19.8213 15.9711 19.8213 16.3334C19.8213 16.7247 19.7411 17.0145 19.5675 17.2174C19.3939 17.4203 19.1401 17.5073 18.7928 17.5073C18.4322 17.5073 18.165 17.3768 17.978 17.1305C17.7911 16.8841 17.6976 16.4783 17.6976 15.9276H14.906C14.906 17.2609 15.2399 18.2754 15.9078 18.9421C16.5756 19.6087 17.564 19.9421 18.8863 19.9421C20.1151 19.9421 21.0768 19.5797 21.7847 18.8696C22.4926 18.1595 22.8399 17.1595 22.8399 15.8696C22.8399 15.0435 22.6529 14.2899 22.2789 13.6232C21.9049 12.9566 21.2371 12.1739 20.262 11.2464Z" fill="white"/>
<path d="M60.4522 13.6376C60.0782 12.971 59.4104 12.1739 58.4487 11.2608C57.3535 10.2173 56.699 9.50719 56.4853 9.11589C56.2716 8.72458 56.1647 8.33328 56.1647 7.91299C56.1647 7.56516 56.2582 7.30429 56.4452 7.11589C56.6322 6.92748 56.8593 6.84052 57.1398 6.84052C57.4737 6.84052 57.7275 6.98545 57.9145 7.26081C58.1015 7.53618 58.195 7.91299 58.195 8.36226H60.9464C60.9464 7.11589 60.6125 6.14487 59.958 5.46371C59.3036 4.78255 58.3552 4.44922 57.1131 4.44922C55.951 4.44922 55.0161 4.78255 54.3082 5.43473C53.6003 6.10139 53.2396 6.98545 53.2396 8.10139C53.2396 9.17386 53.3865 10.0724 53.667 10.797C53.9475 11.5217 54.6154 12.3768 55.6705 13.3768C56.4987 14.1449 57.0997 14.7536 57.4603 15.1739C57.821 15.5941 58.008 15.9855 58.008 16.3478C58.008 16.7391 57.9278 17.0289 57.7408 17.2318C57.5672 17.4347 57.3134 17.5217 56.9661 17.5217C56.6055 17.5217 56.3384 17.3913 56.1514 17.1449C55.9644 16.8985 55.8709 16.4927 55.8709 15.942H53.0793C53.0793 17.2753 53.4133 18.2898 54.0811 18.9565C54.7489 19.6231 55.7373 19.9565 57.0596 19.9565C58.2884 19.9565 59.2501 19.5941 59.958 18.884C60.6659 18.1739 61.0132 17.1739 61.0132 15.884C60.9998 15.0434 60.8129 14.3043 60.4522 13.6376Z" fill="white"/>
<path d="M30.0526 16.0435H28.757C28.7036 16.6957 28.6101 17.116 28.4632 17.3189C28.3162 17.5218 28.0892 17.6087 27.782 17.6087C27.2878 17.6087 26.9672 17.2899 26.8337 16.6667C26.6867 16.0435 26.6199 14.5508 26.6199 12.1884C26.6199 10.145 26.6867 8.73916 26.8069 7.95655C26.9272 7.17394 27.2477 6.78264 27.7419 6.78264C28.0358 6.78264 28.2495 6.91307 28.3697 7.18844C28.4899 7.4638 28.5567 8.058 28.5567 8.98554H30.066C30.3999 8.23192 30.814 7.53626 31.3349 6.92757C31.1746 6.39134 30.9208 5.92757 30.6002 5.56525C29.9324 4.81163 28.9707 4.43481 27.7286 4.43481C26.1658 4.43481 24.9904 5.08699 24.2157 6.39134C23.4411 7.69568 23.0537 9.62322 23.0537 12.1884C23.0537 14.7681 23.4277 16.7102 24.1757 18C24.9236 19.3044 26.0189 19.9566 27.4748 19.9566C28.757 19.9566 29.7187 19.6377 30.3598 19C30.6804 18.6812 30.9074 18.2899 31.0677 17.7971C30.667 17.2609 30.3331 16.6667 30.0526 16.0435Z" fill="white"/>
<path d="M44.7315 12.5363C44.7315 14.0145 44.3842 15.3913 43.7565 16.5942C43.9702 17.4493 44.2774 18.1015 44.6781 18.5653C45.2257 19.1739 45.987 19.4783 46.9621 19.4783C47.5364 19.4783 48.044 19.3913 48.4714 19.2319C48.8988 19.0725 49.1927 18.8551 49.3396 18.5942C49.3529 18.7392 49.3663 18.8841 49.3663 19C49.3796 19.116 49.3796 19.2319 49.3796 19.3334C49.3796 20.1305 49.2194 20.7247 48.8854 21.1305C48.5515 21.5363 48.044 21.7537 47.3494 21.7537C46.8953 21.7537 46.3877 21.6957 45.8401 21.5797C45.2925 21.4638 44.8384 21.3334 44.4911 21.1595L44.0637 23.2319C44.5846 23.4928 45.1589 23.6812 45.8 23.8116C46.4412 23.9421 47.0689 24 47.6833 24C49.1793 24 50.3547 23.5942 51.2362 22.7826C52.1044 21.971 52.5452 20.8261 52.5452 19.3479V4.63771H49.1125V5.00003C48.8053 4.79713 48.4981 4.65221 48.1909 4.56525C47.8837 4.47829 47.5231 4.43481 47.109 4.43481C46.2675 4.43481 45.5596 4.71018 44.9853 5.27539C44.3976 5.84061 43.9835 6.62322 43.7298 7.60873C43.6897 7.78264 43.6363 7.98554 43.5962 8.23192C44.3175 9.49279 44.7182 10.9566 44.7315 12.5363ZM49.1392 17C48.9923 17.1305 48.8454 17.2174 48.6985 17.2754C48.5515 17.3334 48.3512 17.3624 48.1108 17.3624C47.7902 17.3624 47.5498 17.2609 47.3761 17.058C47.2025 16.8551 47.0956 16.5218 47.0556 16.058C47.0155 15.5797 46.9754 14.971 46.9487 14.2464C46.922 13.5218 46.9087 12.7537 46.9087 11.9421C46.9087 11.4203 46.922 10.8406 46.9487 10.1595C46.9754 9.49279 47.0155 8.8696 47.0689 8.28989C47.1224 7.72467 47.2292 7.34786 47.4162 7.14496C47.6032 6.94206 47.8837 6.84061 48.2577 6.84061C48.3912 6.84061 48.5515 6.8696 48.7252 6.89858C48.8988 6.94206 49.0457 7.00003 49.1392 7.058V17Z" fill="white"/>
<path d="M59.0499 3.18835C59.1033 3.07241 59.1701 2.97096 59.2502 2.884C59.3304 2.79705 59.4372 2.73908 59.5441 2.68111C59.6509 2.63763 59.7711 2.60864 59.8913 2.60864C60.0115 2.60864 60.1318 2.63763 60.2386 2.68111C60.3455 2.72458 60.4523 2.79705 60.5324 2.884C60.6126 2.97096 60.6794 3.07241 60.7328 3.18835C60.7862 3.30429 60.8129 3.44922 60.8129 3.59415C60.8129 3.73908 60.7862 3.884 60.7328 3.99995C60.6794 4.11589 60.6126 4.21734 60.5324 4.30429C60.4523 4.39125 60.3455 4.44922 60.2386 4.4927C60.1318 4.53618 60.0115 4.56516 59.8913 4.56516C59.7711 4.56516 59.6509 4.53618 59.5441 4.4927C59.4372 4.44922 59.3304 4.37676 59.2502 4.30429C59.1701 4.23183 59.1033 4.11589 59.0499 3.99995C58.9964 3.884 58.9697 3.73908 58.9697 3.59415C58.9831 3.43473 59.0098 3.30429 59.0499 3.18835ZM59.2769 3.8985C59.317 3.98545 59.3571 4.07241 59.4238 4.14487C59.4906 4.21734 59.5574 4.26082 59.6376 4.30429C59.7177 4.34777 59.8112 4.36227 59.9047 4.36227C59.9982 4.36227 60.0917 4.34777 60.1718 4.30429C60.252 4.26082 60.3321 4.21734 60.3855 4.14487C60.4523 4.07241 60.4924 3.99995 60.5324 3.8985C60.5725 3.81154 60.5859 3.6956 60.5859 3.59415C60.5859 3.4927 60.5725 3.37676 60.5324 3.2898C60.4924 3.20285 60.4523 3.11589 60.3855 3.04343C60.3187 2.97096 60.252 2.92748 60.1718 2.884C60.0917 2.84053 59.9982 2.82603 59.9047 2.82603C59.8112 2.82603 59.7177 2.84053 59.6376 2.884C59.5574 2.92748 59.4773 2.97096 59.4238 3.04343C59.3571 3.11589 59.317 3.18835 59.2769 3.2898C59.2369 3.37676 59.2235 3.47821 59.2235 3.59415C59.2235 3.71009 59.2369 3.79705 59.2769 3.8985ZM59.918 3.04343C60.0383 3.04343 60.1451 3.07241 60.2119 3.11589C60.2787 3.15937 60.3187 3.24632 60.3187 3.36227C60.3187 3.40574 60.3054 3.44922 60.292 3.4927C60.2787 3.52169 60.2653 3.55067 60.2386 3.57966C60.2119 3.60864 60.1852 3.62314 60.1585 3.63763C60.1317 3.65212 60.0917 3.65212 60.0516 3.66661L60.3187 4.14487H60.105L59.8646 3.68111H59.7444V4.14487H59.5441V3.04343H59.918ZM59.918 3.4927C59.9715 3.4927 60.0249 3.47821 60.065 3.46371C60.105 3.44922 60.1184 3.40574 60.1184 3.33328C60.1184 3.30429 60.1184 3.27531 60.105 3.26082C60.0917 3.24632 60.0783 3.23183 60.0516 3.21734C60.0383 3.20285 60.0115 3.20285 59.9848 3.20285C59.9581 3.20285 59.9314 3.20285 59.918 3.20285H59.7444V3.4927H59.918Z" fill="white"/>
<path d="M36.9714 4.66675C36.9981 4.68124 37.0249 4.68124 37.0382 4.68124C37.0115 4.68124 36.9848 4.66675 36.9714 4.66675Z" fill="white"/>
<path d="M34.3931 15.5217L34.4332 15.4783L34.9007 14.9275L34.9141 14.913L35.1678 14.6087C35.1678 14.6087 35.1678 14.6087 35.1812 14.6232C34.6736 14.1014 34.3664 13.3623 34.3664 12.5362C34.3664 10.9275 35.5685 9.62318 37.0511 9.62318C37.5453 9.62318 37.9994 9.76811 38.3868 10.0145L38.9211 8.97101L38.9478 8.91304L39.482 7.84057L39.5088 7.7826L40.043 6.71014L40.0697 6.65217L40.3502 6.08695L40.5506 5.68115C39.5355 5.05796 38.3734 4.69565 37.1313 4.68115H37.0111C33.0308 4.68115 29.8118 8.15941 29.7717 12.4638V12.5362C29.7717 14.7826 30.6533 16.8116 32.0557 18.2464L32.4164 17.8261L32.777 17.4058L32.8171 17.3623L33.5784 16.4638L33.6185 16.4203L34.3931 15.5217Z" fill="white"/>
<path d="M42.0868 6.89844L41.3923 7.71003L41.3522 7.75351L40.5909 8.65206L40.5508 8.69554L39.7895 9.59409L39.7494 9.63757L39.4689 9.9709L39.0014 10.5071C39.4556 11.0289 39.736 11.739 39.736 12.5071C39.736 14.1158 38.5339 15.4202 37.0647 15.4202C36.6106 15.4202 36.1965 15.3042 35.8225 15.0868L35.2883 16.1303L34.5269 17.5941L34.1262 18.3622L34.0995 18.4202L33.5786 19.4202C34.6071 20.0289 35.7958 20.3912 37.0514 20.3912C41.045 20.3912 44.2907 16.8694 44.2907 12.5361C44.2773 10.3187 43.4358 8.33322 42.0868 6.89844Z" fill="white"/>
<path d="M37.0515 11.9709C36.771 11.9709 36.5439 12.2173 36.5439 12.5217C36.5439 12.826 36.771 13.0724 37.0515 13.0724C37.332 13.0724 37.5591 12.826 37.5591 12.5217C37.5591 12.2173 37.332 11.9709 37.0515 11.9709Z" fill="white"/>
</g>
<defs>
<clipPath id="clip0">
<rect width="61" height="24" fill="white"/>
</clipPath>
</defs>
</svg>
